<svg xmlns="http://www.w3.org/2000/svg" width="98.424" height="31.209" viewBox="0 0 98.424 31.209">
  <g id="Group_2336" data-name="Group 2336" transform="translate(-609.499 -257.446)">
    <g id="SCUF_Logo_-_offblack" data-name="SCUF Logo - @offblack" transform="translate(609.999 258)">
      <path id="Union_22" data-name="Union 22" d="M-10599.915,21l2.019-7.369a14.962,14.962,0,0,1-2.1-7.669A15.042,15.042,0,0,1-10586.526-9v3.168a11.9,11.9,0,0,0-10.33,11.79,11.9,11.9,0,0,0,10.33,11.79v3.168a14.934,14.934,0,0,1-5.973-1.95l-7.416,2.032Zm16.522-3.248a11.9,11.9,0,0,0,10.33-11.79,11.9,11.9,0,0,0-10.33-11.79V-9a15.041,15.041,0,0,1,13.474,14.959,15.041,15.041,0,0,1-13.474,14.959Zm53.227-4.211q-1.893-1.8-1.892-5.515V-3.339h5.166V6.8c0,.45.014.918.037,1.4a4.1,4.1,0,0,0,.269,1.322,2.212,2.212,0,0,0,.753.987,2.368,2.368,0,0,0,1.455.388,2.23,2.23,0,0,0,1.41-.388,2.3,2.3,0,0,0,.727-.987,4.175,4.175,0,0,0,.271-1.322c.023-.482.034-.95.034-1.4V-3.339h5.166V8.023q0,3.719-1.878,5.515t-5.754,1.8Q-10528.276,15.339-10530.166,13.538Zm-14.283,1.075a7.818,7.818,0,0,1-2.663-1.971,8.4,8.4,0,0,1-1.657-2.958,11.642,11.642,0,0,1-.563-3.684,11.578,11.578,0,0,1,.6-3.817,8.4,8.4,0,0,1,1.714-2.948,7.707,7.707,0,0,1,2.679-1.9,8.813,8.813,0,0,1,3.512-.673,7.46,7.46,0,0,1,5.363,1.86,8.078,8.078,0,0,1,2.221,5.206h-5.025c-.031-.168-.088-.394-.165-.686a2.641,2.641,0,0,0-.423-.859,2.9,2.9,0,0,0-.809-.75,2.385,2.385,0,0,0-1.3-.325,2.616,2.616,0,0,0-1.526.423,3.128,3.128,0,0,0-.977,1.123,5.659,5.659,0,0,0-.526,1.575,9.582,9.582,0,0,0-.165,1.772,9.561,9.561,0,0,0,.165,1.772,5.6,5.6,0,0,0,.526,1.575,3.084,3.084,0,0,0,.977,1.123,2.6,2.6,0,0,0,1.526.426,2.5,2.5,0,0,0,1.115-.226,2.2,2.2,0,0,0,.773-.622,3.338,3.338,0,0,0,.517-.95,7.068,7.068,0,0,0,.316-1.173h5.073a7.4,7.4,0,0,1-.506,2.671,7.345,7.345,0,0,1-1.479,2.384,7.267,7.267,0,0,1-2.408,1.711,7.791,7.791,0,0,1-3.261.652A8.555,8.555,0,0,1-10544.449,14.613Zm28.909.724V-3.339h12.963V1.152h-7.8V3.719h6.693v4.2h-6.693v7.419Zm-43.472-.072a8.529,8.529,0,0,1-1.551-.327,9.64,9.64,0,0,1-1.642-.673,5.229,5.229,0,0,1-1.481-1.149,6,6,0,0,1-1.08-1.748,6.44,6.44,0,0,1-.423-2.447h5.166a3.433,3.433,0,0,0,.189,1.173,1.6,1.6,0,0,0,1.011,1.051,4.491,4.491,0,0,0,1.455.247,4.079,4.079,0,0,0,.681-.061,2.148,2.148,0,0,0,.705-.25,1.62,1.62,0,0,0,.54-.5,1.428,1.428,0,0,0,.21-.809,1.027,1.027,0,0,0-.162-.588,1.553,1.553,0,0,0-.566-.45,7.771,7.771,0,0,0-1.1-.45c-.471-.157-1.066-.346-1.785-.561-.657-.2-1.327-.412-2.009-.636a7.169,7.169,0,0,1-1.83-.9,4.584,4.584,0,0,1-1.327-1.423,4.237,4.237,0,0,1-.519-2.211,5.68,5.68,0,0,1,.577-2.658,5.414,5.414,0,0,1,1.514-1.836A6.139,6.139,0,0,1-10560.28-3a9.362,9.362,0,0,1,2.514-.338,11.127,11.127,0,0,1,2.607.3,6.259,6.259,0,0,1,2.208.984,5.094,5.094,0,0,1,1.548,1.8,6.183,6.183,0,0,1,.636,2.735h-4.887a1.367,1.367,0,0,0-.106-.849,1.476,1.476,0,0,0-.5-.575,2.03,2.03,0,0,0-.729-.348,3.29,3.29,0,0,0-.8-.1,3.8,3.8,0,0,0-.586.053,2.353,2.353,0,0,0-.611.173,1.218,1.218,0,0,0-.469.362.948.948,0,0,0-.188.612.993.993,0,0,0,.457.787,4.408,4.408,0,0,0,1.115.551c.455.157.966.309,1.54.45s1.152.3,1.748.46a15.669,15.669,0,0,1,1.737.649,5.823,5.823,0,0,1,1.516.963,4.3,4.3,0,0,1,1.07,1.447,4.977,4.977,0,0,1,.4,2.083,5.724,5.724,0,0,1-.681,2.921,5.436,5.436,0,0,1-1.782,1.886,7.631,7.631,0,0,1-2.49,1.024,12.737,12.737,0,0,1-2.8.311Q-10558.285,15.336-10559.012,15.265Zm-27.049-2a6.553,6.553,0,0,1-1.234-.258,7.824,7.824,0,0,1-1.307-.535,4.176,4.176,0,0,1-1.176-.912,4.835,4.835,0,0,1-.859-1.389,5.111,5.111,0,0,1-.335-1.947h4.107a2.73,2.73,0,0,0,.151.934,1.267,1.267,0,0,0,.8.833,3.531,3.531,0,0,0,1.157.2,3.492,3.492,0,0,0,.543-.051,1.62,1.62,0,0,0,.559-.2,1.278,1.278,0,0,0,.431-.4,1.124,1.124,0,0,0,.168-.644.788.788,0,0,0-.133-.468,1.21,1.21,0,0,0-.447-.356,6.285,6.285,0,0,0-.875-.359c-.375-.125-.849-.271-1.421-.444-.521-.16-1.056-.327-1.6-.505a5.629,5.629,0,0,1-1.458-.716,3.662,3.662,0,0,1-1.054-1.131,3.386,3.386,0,0,1-.412-1.758,4.529,4.529,0,0,1,.46-2.112,4.345,4.345,0,0,1,1.2-1.46,4.946,4.946,0,0,1,1.719-.843,7.477,7.477,0,0,1,2-.266,8.805,8.805,0,0,1,2.072.237,5.022,5.022,0,0,1,1.753.782,4.08,4.08,0,0,1,1.234,1.431,4.9,4.9,0,0,1,.5,2.173h-3.884a1.1,1.1,0,0,0-.085-.673,1.144,1.144,0,0,0-.4-.458,1.564,1.564,0,0,0-.58-.279,2.584,2.584,0,0,0-.636-.08,3.078,3.078,0,0,0-.463.04,1.951,1.951,0,0,0-.486.138.951.951,0,0,0-.373.29.752.752,0,0,0-.148.487.8.8,0,0,0,.361.625,3.535,3.535,0,0,0,.886.436c.362.125.77.245,1.224.356s.918.234,1.392.367a12.274,12.274,0,0,1,1.381.516,4.694,4.694,0,0,1,1.205.766,3.38,3.38,0,0,1,.852,1.149,3.956,3.956,0,0,1,.316,1.657,4.548,4.548,0,0,1-.543,2.322,4.3,4.3,0,0,1-1.418,1.5,6.011,6.011,0,0,1-1.979.814,9.964,9.964,0,0,1-2.222.25C-10585.358,13.328-10585.675,13.307-10586.061,13.267Z" transform="translate(10600.001 9)" fill="#333132" stroke="rgba(0,0,0,0)" stroke-miterlimit="10" stroke-width="1"/>
    </g>
  </g>
</svg>
